/* XPM */
static char * stock_vba_wm_32_xpm[] = {
"32 32 243 2",
"  	c None",
". 	c #302F30",
"+ 	c #2B2B2B",
"@ 	c #191919",
"# 	c #181818",
"$ 	c #232426",
"% 	c #486D9E",
"& 	c #5075A7",
"* 	c #516D98",
"= 	c #232323",
"- 	c #24292E",
"; 	c #6DA9EB",
"> 	c #7AAFF7",
", 	c #6CA5F4",
"' 	c #6DA2E7",
") 	c #6F95CA",
"! 	c #839CC3",
"~ 	c #8D9EBC",
"{ 	c #2F2F2F",
"] 	c #18191B",
"^ 	c #608BBA",
"/ 	c #87BDFD",
"( 	c #79ADF7",
"_ 	c #8ABAFB",
": 	c #98C5FD",
"< 	c #A1CAFB",
"[ 	c #9FC2F0",
"} 	c #87A0C5",
"| 	c #8591A8",
"1 	c #1E2023",
"2 	c #476285",
"3 	c #8DC4FE",
"4 	c #7EB2F7",
"5 	c #8DBCF8",
"6 	c #9DC8FC",
"7 	c #B8D8FF",
"8 	c #CFE3FF",
"9 	c #BCD6FB",
"0 	c #90ACD1",
"a 	c #7A88A4",
"b 	c #171A1D",
"c 	c #374457",
"d 	c #84BBF7",
"e 	c #89BEFC",
"f 	c #88B9F4",
"g 	c #A3CAFC",
"h 	c #BEDAFF",
"i 	c #D8E8FF",
"j 	c #C8DEFD",
"k 	c #9AC0F1",
"l 	c #77859C",
"m 	c #1E1E1E",
"n 	c #191B1E",
"o 	c #242A37",
"p 	c #81ACDD",
"q 	c #95C7FE",
"r 	c #87BAF9",
"s 	c #98C4FD",
"t 	c #A9CDFD",
"u 	c #C1DCFF",
"v 	c #B4D4FE",
"w 	c #A1C8FC",
"x 	c #718EB9",
"y 	c #2E2E2E",
"z 	c #18191A",
"A 	c #1B202A",
"B 	c #6B8CB7",
"C 	c #94C5FE",
"D 	c #94C0FB",
"E 	c #95BFF9",
"F 	c #A9CDF9",
"G 	c #A6CCFD",
"H 	c #A4CCFF",
"I 	c #97C3FC",
"J 	c #7CA5E0",
"K 	c #5D749F",
"L 	c #171B21",
"M 	c #485C7B",
"N 	c #8DBFFC",
"O 	c #92C2FD",
"P 	c #92BFFA",
"Q 	c #95C0F8",
"R 	c #93BFFB",
"S 	c #94C1FE",
"T 	c #88BAFD",
"U 	c #75ACF5",
"V 	c #64799B",
"W 	c #1B1B1B",
"X 	c #18181A",
"Y 	c #373F4D",
"Z 	c #81B4F0",
"` 	c #95C6FE",
" .	c #8EBEFD",
"..	c #89B9FB",
"+.	c #80B2FC",
"@.	c #88B9FD",
"#.	c #82B8FE",
"$.	c #70ACF8",
"%.	c #4B668C",
"&.	c #2E2F2E",
"*.	c #1C1D20",
"=.	c #6A8AB4",
"-.	c #7CA8E0",
";.	c #7AA8E2",
">.	c #74A4E0",
",.	c #6998D6",
"'.	c #6894CC",
").	c #5A8ECC",
"!.	c #5279A9",
"~.	c #3A465A",
"{.	c #3A3B39",
"].	c #232527",
"^.	c #333841",
"/.	c #2C323D",
"(.	c #262D3A",
"_.	c #202734",
":.	c #1F2632",
"<.	c #1C222D",
"[.	c #1B1F28",
"}.	c #1E2024",
"|.	c #292A2A",
"1.	c #373638",
"2.	c #323032",
"3.	c #1C1D1E",
"4.	c #191A1D",
"5.	c #181B1E",
"6.	c #212326",
"7.	c #201F20",
"8.	c #242323",
"9.	c #272726",
"0.	c #242424",
"a.	c #564141",
"b.	c #313130",
"c.	c #1E1E1F",
"d.	c #1F1F1F",
"e.	c #292828",
"f.	c #302E2E",
"g.	c #3C3839",
"h.	c #383232",
"i.	c #373332",
"j.	c #2B2828",
"k.	c #1D1D1C",
"l.	c #532322",
"m.	c #780202",
"n.	c #3B3434",
"o.	c #595455",
"p.	c #5A585B",
"q.	c #424040",
"r.	c #363636",
"s.	c #3A3939",
"t.	c #474646",
"u.	c #663436",
"v.	c #682325",
"w.	c #6E4446",
"x.	c #5C1818",
"y.	c #361B1A",
"z.	c #631010",
"A.	c #5E1919",
"B.	c #323030",
"C.	c #585256",
"D.	c #757174",
"E.	c #87858A",
"F.	c #686468",
"G.	c #484344",
"H.	c #484445",
"I.	c #585254",
"J.	c #7D2B30",
"K.	c #7E2A2A",
"L.	c #633D3E",
"M.	c #771D1E",
"N.	c #211E1E",
"O.	c #292726",
"P.	c #3B3636",
"Q.	c #292627",
"R.	c #3F3C3D",
"S.	c #5C565A",
"T.	c #6F6A70",
"U.	c #7A7880",
"V.	c #78797E",
"W.	c #292929",
"X.	c #272727",
"Y.	c #656066",
"Z.	c #494244",
"`.	c #3B3638",
" +	c #333132",
".+	c #332F30",
"++	c #1B1A1A",
"@+	c #1C1C1C",
"#+	c #222020",
"$+	c #2D2A2B",
"%+	c #4C4648",
"&+	c #6C676C",
"*+	c #555458",
"=+	c #4F4F4F",
"-+	c #1D1D1D",
";+	c #262727",
">+	c #58565C",
",+	c #464243",
"'+	c #3C393A",
")+	c #2C2A2B",
"!+	c #191818",
"~+	c #353032",
"{+	c #574F52",
"]+	c #484548",
"^+	c #474A49",
"/+	c #4F4E53",
"(+	c #3D3C3D",
"_+	c #212121",
":+	c #383234",
"<+	c #343132",
"[+	c #464848",
"}+	c #313131",
"|+	c #1F1F20",
"1+	c #474649",
"2+	c #262526",
"3+	c #444647",
"4+	c #444145",
"5+	c #252525",
"6+	c #434444",
"7+	c #626464",
"8+	c #4E4A50",
"9+	c #282626",
"0+	c #3E3F3F",
"a+	c #525353",
"b+	c #504B52",
"c+	c #292829",
"d+	c #1A1A1A",
"e+	c #201F1E",
"f+	c #3E3E3E",
"g+	c #424141",
"h+	c #595458",
"i+	c #322F2F",
"j+	c #232222",
"k+	c #3C3C3B",
"l+	c #282828",
"m+	c #343233",
"n+	c #2C2C2B",
"o+	c #2B2B2A",
"p+	c #222222",
"q+	c #202020",
"r+	c #3C3C3D",
"s+	c #333333",
"t+	c #2B2A29",
"                                                                ",
"                                                                ",
"        . +                                                     ",
"        @ # $ % & *                                             ",
"        = # - ; > , ' ) ! ~                                     ",
"        { # ] ^ / ( _ : < [ } |                                 ",
"          # 1 2 3 4 5 6 7 8 9 0 a                               ",
"          # b c d e f g h i j k l                               ",
"          m n o p q r s t u v w x                               ",
"          y z A B C D E F G H I J K                             ",
"            # L M N O P Q R S T U V                             ",
"            W X Y Z `  ...+.@.#.$.%.                            ",
"            &.# *.=.-.;.>.,.'.).!.~.                            ",
"            {.# # ].^./.(._.:.<.[.}.|.                          ",
"              m 1.2.m 3.4.5.6.$ 7.8.9.0.a.                      ",
"              b.c.W d.= e.f.g.h.i.j.k.# l.m.n.o.                ",
"                p.q.r.s.t.u.v.w.x.@ # # y.z.A.B.C.D.E.          ",
"                0.F.G.H.I.J.K.L.M.N.# # # O.P.Q.R.S.T.U.V.      ",
"                W.X.Y.Z.`. +.+8.++# # # # # @+#+$+%+&+*+=+      ",
"                  -+;+>+,+'+)+# # # # # # # # !+~+{+]+^+        ",
"                    # 0./+(+_+# # # # # # # # ++:+<+[+          ",
"                    }+# |+1+2+# # # # # # # # # d.3+            ",
"                      0.# @+4+5+# # # # # # # m 6+7+            ",
"                        m # W 8+9+# # # # # -+0+a+              ",
"                          # # @+b+c+d+# # e+f+g+                ",
"                          r.# # @+h+i+# j+k+s.                  ",
"                            l+# # @ m+n+r.o+                    ",
"                              p+# # q+r+q+                      ",
"                                @+# s+y                         ",
"                                  @ t+                          ",
"                                                                ",
"                                                                "};
